<svg id="Layer_1" data-name="Layer 1" xmlns="http://www.w3.org/2000/svg" xmlns:xlink="http://www.w3.org/1999/xlink" viewBox="0 0 156.73 94.46">
  <defs>
    <linearGradient id="linear-gradient" x1="135.1" y1="53.62" x2="135.11" y2="53.62" gradientUnits="userSpaceOnUse">
      <stop offset="0" stop-color="#ffffe5"/>
      <stop offset="1" stop-color="#153f2d"/>
    </linearGradient>
    <linearGradient id="linear-gradient-2" x1="102.53" y1="74.33" x2="83.1" y2="43.36" gradientUnits="userSpaceOnUse">
      <stop offset="0" stop-color="#294d25"/>
      <stop offset="1" stop-color="#153f2d"/>
    </linearGradient>
    <linearGradient id="linear-gradient-3" x1="137.15" y1="36.81" x2="141.85" y2="36.81" xlink:href="#linear-gradient"/>
    <linearGradient id="linear-gradient-4" x1="21.93" y1="85.28" x2="21.97" y2="85.28" xlink:href="#linear-gradient"/>
    <linearGradient id="linear-gradient-5" x1="17.12" y1="86.87" x2="22.6" y2="86.87" xlink:href="#linear-gradient"/>
    <linearGradient id="linear-gradient-6" x1="19.14" y1="75.4" x2="24.74" y2="75.4" xlink:href="#linear-gradient"/>
    <linearGradient id="linear-gradient-7" x1="30.22" y1="74.34" x2="30.29" y2="74.34" xlink:href="#linear-gradient"/>
    <linearGradient id="linear-gradient-8" x1="25.13" y1="74.29" x2="30.75" y2="74.29" xlink:href="#linear-gradient"/>
    <linearGradient id="linear-gradient-9" x1="21.55" y1="77.58" x2="28.51" y2="77.58" xlink:href="#linear-gradient"/>
    <linearGradient id="linear-gradient-10" x1="113.51" y1="7.27" x2="117.93" y2="7.27" xlink:href="#linear-gradient"/>
    <linearGradient id="linear-gradient-11" x1="14.4" y1="73.98" x2="17.02" y2="73.98" xlink:href="#linear-gradient"/>
    <linearGradient id="linear-gradient-12" x1="141.75" y1="48.1" x2="143.78" y2="48.1" xlink:href="#linear-gradient"/>
    <linearGradient id="linear-gradient-13" x1="127.37" y1="1.74" x2="129.27" y2="1.74" xlink:href="#linear-gradient"/>
    <linearGradient id="linear-gradient-14" x1="9.78" y1="90.72" x2="11.54" y2="90.72" xlink:href="#linear-gradient"/>
    <linearGradient id="linear-gradient-15" x1="27.83" y1="86.64" x2="30.65" y2="86.64" xlink:href="#linear-gradient"/>
    <linearGradient id="linear-gradient-16" x1="30.04" y1="64.64" x2="31.74" y2="64.64" xlink:href="#linear-gradient"/>
    <linearGradient id="linear-gradient-17" x1="25.47" y1="48.82" x2="27.49" y2="48.82" xlink:href="#linear-gradient"/>
    <linearGradient id="linear-gradient-18" x1="27.57" y1="57.1" x2="28.85" y2="57.1" xlink:href="#linear-gradient"/>
    <linearGradient id="linear-gradient-19" x1="25.33" y1="87.11" x2="27.14" y2="87.11" xlink:href="#linear-gradient"/>
    <linearGradient id="linear-gradient-20" x1="60.59" y1="85.64" x2="63.6" y2="85.64" xlink:href="#linear-gradient"/>
    <linearGradient id="linear-gradient-21" x1="138.91" y1="32.75" x2="140.48" y2="32.75" xlink:href="#linear-gradient"/>
    <linearGradient id="linear-gradient-22" x1="120.57" y1="6.83" x2="121.95" y2="6.83" xlink:href="#linear-gradient"/>
    <linearGradient id="linear-gradient-23" x1="15.23" y1="89.97" x2="16.49" y2="89.97" xlink:href="#linear-gradient"/>
    <linearGradient id="linear-gradient-24" x1="14.25" y1="82.1" x2="15.31" y2="82.1" xlink:href="#linear-gradient"/>
    <linearGradient id="linear-gradient-25" x1="140.44" y1="31.98" x2="140.46" y2="31.98" xlink:href="#linear-gradient"/>
    <linearGradient id="linear-gradient-26" x1="140.46" y1="31.65" x2="141.7" y2="31.65" xlink:href="#linear-gradient"/>
    <linearGradient id="linear-gradient-27" x1="69.42" y1="83.26" x2="72.02" y2="83.26" xlink:href="#linear-gradient"/>
    <linearGradient id="linear-gradient-28" x1="29.3" y1="77.03" x2="30.21" y2="77.03" xlink:href="#linear-gradient"/>
    <linearGradient id="linear-gradient-29" x1="38.28" y1="85.47" x2="39.46" y2="85.47" xlink:href="#linear-gradient"/>
    <linearGradient id="linear-gradient-30" x1="21.96" y1="85.13" x2="22.75" y2="85.13" xlink:href="#linear-gradient"/>
    <linearGradient id="linear-gradient-31" x1="138.67" y1="52.71" x2="139.26" y2="52.71" xlink:href="#linear-gradient"/>
    <linearGradient id="linear-gradient-32" x1="15.59" y1="70.27" x2="16.19" y2="70.27" xlink:href="#linear-gradient"/>
    <linearGradient id="linear-gradient-33" x1="43.1" y1="86.45" x2="43.87" y2="86.45" xlink:href="#linear-gradient"/>
    <linearGradient id="linear-gradient-34" x1="124.15" y1="8" x2="125.35" y2="8" xlink:href="#linear-gradient"/>
    <linearGradient id="linear-gradient-35" x1="137.44" y1="34.37" x2="138.11" y2="34.37" xlink:href="#linear-gradient"/>
    <linearGradient id="linear-gradient-36" x1="26.78" y1="52.61" x2="28.19" y2="52.61" xlink:href="#linear-gradient"/>
    <linearGradient id="linear-gradient-37" x1="30.61" y1="55.51" x2="31.29" y2="55.51" xlink:href="#linear-gradient"/>
    <linearGradient id="linear-gradient-38" x1="72.23" y1="82.77" x2="73.11" y2="82.77" xlink:href="#linear-gradient"/>
    <linearGradient id="linear-gradient-39" x1="76.91" y1="81.62" x2="77.36" y2="81.62" xlink:href="#linear-gradient"/>
    <linearGradient id="linear-gradient-40" x1="36.42" y1="60.54" x2="36.83" y2="60.54" xlink:href="#linear-gradient"/>
    <linearGradient id="linear-gradient-41" x1="68.74" y1="83.73" x2="69.15" y2="83.73" xlink:href="#linear-gradient"/>
    <linearGradient id="linear-gradient-42" x1="142.3" y1="39.61" x2="142.72" y2="39.61" xlink:href="#linear-gradient"/>
    <linearGradient id="linear-gradient-43" x1="142.56" y1="39.1" x2="142.8" y2="39.1" xlink:href="#linear-gradient"/>
    <linearGradient id="linear-gradient-44" x1="30.98" y1="86.55" x2="31.26" y2="86.55" xlink:href="#linear-gradient"/>
    <linearGradient id="linear-gradient-45" x1="112.72" y1="9.26" x2="112.92" y2="9.26" xlink:href="#linear-gradient"/>
    <linearGradient id="linear-gradient-46" x1="152.49" y1="11.69" x2="152.53" y2="11.69" xlink:href="#linear-gradient"/>
    <linearGradient id="linear-gradient-47" x1="152.53" y1="11.75" x2="152.99" y2="11.75" xlink:href="#linear-gradient"/>
    <linearGradient id="linear-gradient-48" x1="21.14" y1="77.97" x2="21.28" y2="77.97" xlink:href="#linear-gradient"/>
    <linearGradient id="linear-gradient-49" x1="32.59" y1="81.39" x2="32.61" y2="81.39" xlink:href="#linear-gradient"/>
    <linearGradient id="linear-gradient-50" x1="32.38" y1="81.33" x2="32.59" y2="81.33" xlink:href="#linear-gradient"/>
    <linearGradient id="linear-gradient-51" x1="61.71" y1="84.92" x2="61.85" y2="84.92" xlink:href="#linear-gradient"/>
    <linearGradient id="linear-gradient-52" x1="32.09" y1="86.25" x2="32.16" y2="86.25" xlink:href="#linear-gradient"/>
    <linearGradient id="linear-gradient-53" x1="28.43" y1="51.72" x2="28.57" y2="51.72" xlink:href="#linear-gradient"/>
    <linearGradient id="linear-gradient-54" x1="29.22" y1="55.54" x2="29.36" y2="55.54" xlink:href="#linear-gradient"/>
    <linearGradient id="linear-gradient-55" x1="33.88" y1="74.47" x2="34.06" y2="74.47" xlink:href="#linear-gradient"/>
    <linearGradient id="linear-gradient-56" x1="141.45" y1="17.86" x2="141.58" y2="17.86" xlink:href="#linear-gradient"/>
    <linearGradient id="linear-gradient-57" x1="141.41" y1="17.89" x2="141.45" y2="17.89" xlink:href="#linear-gradient"/>
    <linearGradient id="linear-gradient-58" x1="30.3" y1="56.86" x2="30.45" y2="56.86" xlink:href="#linear-gradient"/>
    <linearGradient id="linear-gradient-59" x1="123.23" y1="3.8" x2="123.27" y2="3.8" xlink:href="#linear-gradient"/>
    <linearGradient id="linear-gradient-60" x1="74.19" y1="82.29" x2="74.27" y2="82.29" xlink:href="#linear-gradient"/>
    <linearGradient id="linear-gradient-61" x1="31.14" y1="82.43" x2="31.3" y2="82.43" xlink:href="#linear-gradient"/>
    <linearGradient id="linear-gradient-62" x1="31.68" y1="86.3" x2="31.73" y2="86.3" xlink:href="#linear-gradient"/>
    <linearGradient id="linear-gradient-63" x1="31.73" y1="86.37" x2="31.78" y2="86.37" xlink:href="#linear-gradient"/>
    <linearGradient id="linear-gradient-64" x1="17.58" y1="89.99" x2="17.62" y2="89.99" xlink:href="#linear-gradient"/>
    <linearGradient id="linear-gradient-65" x1="130.31" y1="1.61" x2="130.42" y2="1.61" xlink:href="#linear-gradient"/>
    <linearGradient id="linear-gradient-66" x1="127.73" y1="2.42" x2="127.76" y2="2.42" xlink:href="#linear-gradient"/>
    <linearGradient id="linear-gradient-67" x1="127.69" y1="2.46" x2="127.73" y2="2.46" xlink:href="#linear-gradient"/>
    <linearGradient id="linear-gradient-68" x1="153.3" y1="11.54" x2="153.39" y2="11.54" xlink:href="#linear-gradient"/>
    <linearGradient id="linear-gradient-69" x1="138.11" y1="34.03" x2="138.27" y2="34.03" xlink:href="#linear-gradient"/>
    <linearGradient id="linear-gradient-70" x1="142.8" y1="39.22" x2="142.84" y2="39.22" xlink:href="#linear-gradient"/>
    <linearGradient id="linear-gradient-71" x1="141.5" y1="51.31" x2="141.54" y2="51.31" xlink:href="#linear-gradient"/>
    <linearGradient id="linear-gradient-72" x1="135.1" y1="53.61" x2="135.11" y2="53.61" xlink:href="#linear-gradient"/>
    <linearGradient id="linear-gradient-73" x1="135.11" y1="53.56" x2="135.12" y2="53.56" xlink:href="#linear-gradient"/>
    <linearGradient id="linear-gradient-74" x1="135.49" y1="53.88" x2="135.51" y2="53.88" xlink:href="#linear-gradient"/>
    <linearGradient id="linear-gradient-75" x1="132.58" y1="20.54" x2="132.63" y2="20.54" xlink:href="#linear-gradient"/>
    <linearGradient id="linear-gradient-76" x1="28.79" y1="78.31" x2="28.85" y2="78.31" xlink:href="#linear-gradient"/>
    <linearGradient id="linear-gradient-77" x1="16.29" y1="82.05" x2="16.4" y2="82.05" xlink:href="#linear-gradient"/>
    <linearGradient id="linear-gradient-78" x1="38.58" y1="82.43" x2="38.61" y2="82.43" xlink:href="#linear-gradient"/>
    <linearGradient id="linear-gradient-79" x1="22.18" y1="83.21" x2="22.23" y2="83.21" xlink:href="#linear-gradient"/>
    <linearGradient id="linear-gradient-80" x1="43.07" y1="86.49" x2="43.1" y2="86.49" xlink:href="#linear-gradient"/>
    <linearGradient id="linear-gradient-81" x1="134.41" y1="22.43" x2="134.6" y2="22.43" xlink:href="#linear-gradient"/>
    <linearGradient id="linear-gradient-82" x1="134.36" y1="22.47" x2="134.41" y2="22.47" xlink:href="#linear-gradient"/>
    <linearGradient id="linear-gradient-83" x1="143.43" y1="15.26" x2="143.88" y2="15.26" xlink:href="#linear-gradient"/>
    <linearGradient id="linear-gradient-84" x1="143.88" y1="15.14" x2="143.96" y2="15.14" xlink:href="#linear-gradient"/>
    <linearGradient id="linear-gradient-85" x1="143.96" y1="15.11" x2="144" y2="15.11" xlink:href="#linear-gradient"/>
  </defs>
  <g>
    <path d="M135.1,53.62h0Z" style="fill: url(#linear-gradient)"/>
    <path d="M152.36,11.22l.71-.53a1,1,0,0,0,.43-1.18v0l0,0v0L153,9.14c0-.15.16-.32,0-.44s-.27,0-.38.1a1.12,1.12,0,0,0-.2.18l.23.29c-.1.27-.42.34-.46.62A.17.17,0,0,1,152,10c-.39,0-.62.26-.89.47-.09.07-.16.18-.26.22-.42.16-.85.33-1.29.45a16.69,16.69,0,0,0-1.9.93s0,0,0,0a1.08,1.08,0,0,1-.73.47,4.18,4.18,0,0,0-1.16.57,4,4,0,0,1-1.17.58,1.24,1.24,0,0,0-.37.17,15.8,15.8,0,0,1-1.82,1,6.73,6.73,0,0,1-1.5.68,5.83,5.83,0,0,0-1.38.58,1,1,0,0,1-.52.15,1.22,1.22,0,0,0-.85.18.52.52,0,0,1-.26.08,1.32,1.32,0,0,0-.77.28c-.5.35-1.11.57-1.45,1.14,0,.09-.17.15-.25.22a.45.45,0,0,1-.45.1c-.11,0-.21-.12-.32-.14a.92.92,0,0,0-.46,0,2.11,2.11,0,0,0-.91.79l.26.2c-.11.14-.23.27-.34.42s-.17.21-.15.3c.07.37-.22.5-.42.7a2,2,0,0,0,1.05-.41c.73-.51,1.55-.88,2.27-1.41s1.76-1,2.58-1.56A1.32,1.32,0,0,1,139,17s.06.06.1.1-.2.23-.29.35a3.94,3.94,0,0,1-.26.4,7.22,7.22,0,0,1-.85.81,12.15,12.15,0,0,1-1.05.63,15.65,15.65,0,0,1-1.89,1.12,1.6,1.6,0,0,0-.91.79.87.87,0,0,1-.29.28c-.61.4-1.26.73-1.88,1.12a1,1,0,0,1-.95.06,2.52,2.52,0,0,1,1.2-.95,1.07,1.07,0,0,0,.28-.19s0-.07.06-.13l-.42,0c0-.11.07-.21.11-.35a18.48,18.48,0,0,1-2.17.91c-.12-.18-.22-.35-.34-.54l-.83.29c0-.18-.1-.36,0-.48a2.32,2.32,0,0,1,.74-1.11c.18-.11.36-.22.52-.34a1.1,1.1,0,0,0,.14-.21c-.23-.16-.57-.06-.65-.37a1.87,1.87,0,0,1,.4-1,.55.55,0,0,0,0-.68,1,1,0,0,0-.73.34,1.19,1.19,0,0,1-.37.29.22.22,0,0,1-.31-.17,1,1,0,0,1,.23-.84,4.57,4.57,0,0,1,.45-.43,15.27,15.27,0,0,0,1.36-1c.39-.33.81-.61,1.21-.92a9.77,9.77,0,0,0,1.11-.91c.52-.52,1-1.11,1.48-1.63a6.54,6.54,0,0,0,.94-1.35,1,1,0,0,0,.08-.8.5.5,0,0,0-.51-.38,1.84,1.84,0,0,0-.47.06.58.58,0,0,1-.73-.35,1.07,1.07,0,0,1,.71-.62s.08,0,.12-.06a.73.73,0,0,0,.38-.46c.06-.18-.06-.3-.15-.43a1.26,1.26,0,0,1-.22-.43,2.37,2.37,0,0,1,0-.53l-.59-.48a3.13,3.13,0,0,0-1.41.29,1.61,1.61,0,0,1-.92.22.81.81,0,0,0-.51.16,1,1,0,0,1-.86.12s0,0,0,0l-.06-.12a.43.43,0,0,1,.21-.68l.74-.38a.51.51,0,0,0,.3-.69c-.06-.2-.14-.39-.21-.58a.5.5,0,0,0-.53-.35c0,.22,0,.3-.07.35s-.31.09-.34.18c-.14.39-.5.44-.8.6l-.77.44c-.12.07-.23.19-.35.21a3.7,3.7,0,0,0-1.52.73l.12.29a2.29,2.29,0,0,1-1.07,1.14,10.34,10.34,0,0,0-1.2.79,1.64,1.64,0,0,1-.87.44l-.74-.27c0-.11,0-.2,0-.37-.37.09-.63-.17-.87-.4a1,1,0,0,0-.88-.27l-.38.06-.28-.42c-.47.34-.86.09-1.26,0a4.33,4.33,0,0,1-.67.63,9.91,9.91,0,0,0-1.35,1.07l-.58-.2c-.53.36-.53.36-1.13.06a5.44,5.44,0,0,0-.55.39,7.09,7.09,0,0,1-2.09,1.18,2.76,2.76,0,0,1-.92.26,7.55,7.55,0,0,0-1.93.52c-.21.08-.44.09-.66.15s-.47.16-.71.24a.49.49,0,0,1-.2,0l-1-.06c-.23,0-.34-.13-.4-.4,0-.08,0-.18-.1-.27a.64.64,0,0,0-.22,0,7.15,7.15,0,0,1-1.87.84,1.18,1.18,0,0,0-.38.16,6,6,0,0,1-1.61.77,9.32,9.32,0,0,0-1.75.75,4.9,4.9,0,0,1-1.18.56,4.09,4.09,0,0,0-1,.45,10.42,10.42,0,0,1-2.21.92,6.6,6.6,0,0,0-1.17.55c-.14.08-.27.22-.42.23-.65.07-1.16.52-1.8.6a.29.29,0,0,0-.13,0c-.2.3-.56.25-.84.38l-.36.17h0a1.28,1.28,0,0,0-.77.19,4.59,4.59,0,0,1-1,.39,3.59,3.59,0,0,0-.53.24h0l-.29.13h0a8.38,8.38,0,0,0-1.49.69,2.78,2.78,0,0,1-.5.21c0,.33-.31,0-.43.14a.32.32,0,0,1-.27.17,1.87,1.87,0,0,0-1.07.35h0c-.19-.08-.15.22-.28.19a.62.62,0,0,0-.51.08,4.78,4.78,0,0,1-.87.38,6.39,6.39,0,0,0-1.63.6,1.11,1.11,0,0,1-.44.18c-.18,0-.4,0-.5.14s-.38,0-.46.2h0a4.16,4.16,0,0,0-1.3.39c-.6.17-1.16.47-1.78.62-.86.21-1.68.55-2.53.81-.48.14-.93.38-1.4.54-1.33.44-2.67.86-4,1.29l-1.36.46a8.52,8.52,0,0,1-1.3.41c-.55.09-1,.34-1.57.45s-1.2.45-1.84.56a8.82,8.82,0,0,0-1.37.46l-.52.19c-1.14.32-2.29.63-3.44,1-.76.22-1.52.5-2.29.7-1,.24-1.93.57-2.91.81-.68.16-1.35.43-2,.62s-1.54.45-2.31.67a10.57,10.57,0,0,0-1.25.37,20.61,20.61,0,0,1-2,.58c-.41.13-.84.18-1.26.29a7.59,7.59,0,0,0-.84.3,4,4,0,0,0-.46.22c0,.28,0,.5.06.76a4.32,4.32,0,0,1-.51.45c-.24.17-.43.32-.38.66a.47.47,0,0,1-.14.29c-.27.28-.56.55-.83.82-.08.07-.21.12-.15.27a1.34,1.34,0,0,0,.86,0,13.56,13.56,0,0,0,2.34-.58,2,2,0,0,1,1.22,0,.39.39,0,0,1,.31.33,2.34,2.34,0,0,1,0,1c-.15.36-.31.71-.47,1.07a.61.61,0,0,1-.4.35c-.14,0-.27.07-.4.13a3.41,3.41,0,0,0-1.38.9,1,1,0,0,0,1,.41,4.94,4.94,0,0,0,1.4-.34.75.75,0,0,1,1,.22,4.51,4.51,0,0,0,.37.39c-.11.26-.22.49-.31.72a.73.73,0,0,0-.08.25c-.06.65-.18.81-.76.94-.31.07-.63.11-.94.16-.1-.12-.18-.28-.31-.34a1.06,1.06,0,0,0-.53-.08c-.59.06-1.19.13-1.77.24a17.76,17.76,0,0,1-1.91.23,1.56,1.56,0,0,1-.74-.09.59.59,0,0,0-.47,0,1.31,1.31,0,0,0-.73,1,1.58,1.58,0,0,0,1.27.23A10.06,10.06,0,0,1,40.71,44a.19.19,0,0,1,.17.09.34.34,0,0,1-.06.24,3.67,3.67,0,0,1-.52.44,3.51,3.51,0,0,1-2.55.79l0,0v0h0a1.51,1.51,0,0,1-1.47.82,1.5,1.5,0,0,0-1.07.4,1.48,1.48,0,0,1-.35.19c-.28.11-.56.2-.82.28a4.49,4.49,0,0,0-.27.74,2.59,2.59,0,0,1-.67,1.4.63.63,0,0,0-.11.83h.27c.3,0,.59-.08.89-.1s.57.11.64.48a.89.89,0,0,0,.22.56.39.39,0,0,1,0,.51,1.39,1.39,0,0,0-.23.71.44.44,0,0,1-.11.24,2.21,2.21,0,0,1-.67.69c-.07,0-.11.11-.21.21l.25,0a1.23,1.23,0,0,1,.27,0c.24,0,.28.11.26.37s0,.27,0,.41l.51.21c0,.17,0,.31,0,.47.16,0,.37,0,.46.11.26.27.59.21.89.24a1.18,1.18,0,0,1,.68.21c-.13.08-.25.14-.36.22s-.59,0-.74.3a6.65,6.65,0,0,0-.32.82c.16.37.52.49.84.66a.89.89,0,0,1,.54,1,2.45,2.45,0,0,0,.08,1c0,.05.1.08.15.11.13-.31.47-.17.69-.29a1.1,1.1,0,0,1,.46,0,3.19,3.19,0,0,0,.09.43.67.67,0,0,1-.18.81,2.61,2.61,0,0,1-.65.51,3.31,3.31,0,0,0-.82.71,1.1,1.1,0,0,0-.34,1.18,1.23,1.23,0,0,0,.87.5,1,1,0,0,1,.81.43.58.58,0,0,0,.3.12c.12,0,.24,0,.35,0s.21,0,.23.11c.11.28.42.5.24.86a1.46,1.46,0,0,0,0,.2,1.8,1.8,0,0,0,0,1.21c.06.24.1.54.33.64a3,3,0,0,1,.93.69,1.86,1.86,0,0,0,.25-.14c.08-.06.13-.16.21-.18a.29.29,0,0,1,.24,0s0,.18,0,.22-.27.18-.4.28c-.38.31-.89.46-1.16.94a.93.93,0,0,1-.55.36,7,7,0,0,1-2.73.11L36,68.86a2.75,2.75,0,0,1-.46-.17,2.37,2.37,0,0,0-1.38-.31,1.07,1.07,0,0,1-.4,0,1.43,1.43,0,0,0-.68-.07c-.3,0-.42-.15-.32-.43.2-.54.18-.52-.39-.49-.3,0-.39.18-.57.36l-.95-.12a1.61,1.61,0,0,0-.47,1.07c0,.07-.1.19-.15.19a.69.69,0,0,1-.29-.13s0-.09,0-.13,0-.23-.18-.23c-.35.74-.22,1,.53,1.18h.07c.33.07.46.17.5.47a3.68,3.68,0,0,1,0,.47,2.77,2.77,0,0,1-1.51.43.45.45,0,0,1-.25-.07.39.39,0,0,0-.45,0,3.26,3.26,0,0,1-1.35.44c-.62.07-1.24.08-1.86.12l-.48.06a6.34,6.34,0,0,1-.75.07,2.83,2.83,0,0,0-1.08.15,1.07,1.07,0,0,1-1-.1,1.2,1.2,0,0,0-1.24-.11,3.59,3.59,0,0,1-.48.14.5.5,0,0,0,0,.5.25.25,0,0,1-.17.33,4.81,4.81,0,0,1-1,.26,2.36,2.36,0,0,0-.95.3c.06,0,.19.14.18.15-.1.22.08.35.15.51a.73.73,0,0,0,.94.45c.21-.06.42-.16.64-.22s.44-.07.69-.11a.13.13,0,0,0,.08-.06.88.88,0,0,1,.62-.37c.2-.06.35.08.51.15l.45.19a.55.55,0,0,0,.58-.06.36.36,0,0,1,.38-.07.5.5,0,0,0,.6-.22.93.93,0,0,1,.39-.37l1.09-.47a1.17,1.17,0,0,0,1,.27c.4-.12.81-.07,1.21-.16a1.54,1.54,0,0,0,1.13-.58.36.36,0,0,1,.21-.15,2.85,2.85,0,0,1,1.71,0,1.9,1.9,0,0,1,0,.74,1.88,1.88,0,0,0-.12.87,4,4,0,0,1-.05.63l-.36.22a1.83,1.83,0,0,1,1,.17,2.53,2.53,0,0,0,1.33.27c.29,0,.45-.1.53-.42a.42.42,0,0,1,.64-.3.67.67,0,0,0,.45.08.48.48,0,0,1,.54.22,1.84,1.84,0,0,0,.25.23.69.69,0,0,0,1-.06.2.2,0,0,0,0-.18.19.19,0,0,0-.16-.08c-.15,0-.27,0-.29-.26a11,11,0,0,1,2.71-.32c.08.19.16.35.22.51a.12.12,0,0,1,0,.08,1.32,1.32,0,0,1-.5.33,1.24,1.24,0,0,0-.7,1.15,1.36,1.36,0,0,0,0,.3,1.27,1.27,0,0,1-1.31.13,4.46,4.46,0,0,0-1-1.07c-.32.18-.22.5-.35.77l-.43.35a8.61,8.61,0,0,0-1-.06,1,1,0,0,1-1.07-.68,4.07,4.07,0,0,0-.27-.44c-.09.19-.16.32-.21.45a.22.22,0,0,0,0,.18.38.38,0,0,1,.05.44.71.71,0,0,1-.36.4,3.53,3.53,0,0,0-.56.25.31.31,0,0,0-.1.24.27.27,0,0,0,.2.14c.34,0,.68-.07,1-.11a.6.6,0,0,1,.14,0c0,.11.09.23.1.28-.45,1-1.28.94-2.08,1-.12,0-.23,0-.35,0a3,3,0,0,0-1,0l0,0h0l0,0a1,1,0,0,1-.82.1.51.51,0,0,0-.52,0,.53.53,0,0,1-.57,0c-.21-.07-.44-.06-.66-.11s-.24.11-.36.15a.3.3,0,0,1-.2,0c-.63-.11-1.26.11-1.9.06a2.59,2.59,0,0,1-.73-.07,1.72,1.72,0,0,0-1.26,0,1.43,1.43,0,0,0-.64.49.68.68,0,0,1-.6.34l0-.18a10.59,10.59,0,0,1-1.2-.25.58.58,0,0,0-.39,0l-.37.16c-.64-.52-.7-.71-1.34-.64A2.63,2.63,0,0,0,17,79c-.13.23-.39.23-.55.38a2.79,2.79,0,0,0-.5.46,1.44,1.44,0,0,1-.73.57c0,.18-.15.34,0,.47s.12.42.12.63c.17.14.38.24.47.4s.3.18.47.23h0l0-.23h.09l0,.23h0v0a.62.62,0,0,1,.27,0c.34.12.68.24,1,.39a5.12,5.12,0,0,1,.73.39.71.71,0,0,1,.27.3.75.75,0,0,0,.95.45c.29-.06.58-.12.87-.2a5.71,5.71,0,0,1,.89-.15c.11-.12,0-.32.2-.35s.2-.11.31-.14a.21.21,0,0,1,.28.13.76.76,0,0,1,0,.26h0l.39.37c.3-.23.69-.29.86-.72a.85.85,0,0,1,.8-.44,6.51,6.51,0,0,0,1-.1,1.13,1.13,0,0,1,.64.09,1.43,1.43,0,0,1,.31.24,1.69,1.69,0,0,1-.08.24l-.31.46a.61.61,0,0,1-.46,0,.57.57,0,0,0-.59,0l-.38.65c-.1.17,0,.3.12.43h.18c.4,0,.8-.19,1.21-.06.47-.13,1-.13,1.26-.66,0-.09.22-.11.32-.16l.44.41.79-.64c0-.31.08-.59-.11-.83s-.41,0-.4-.31a5.11,5.11,0,0,0,.87-.15,10.94,10.94,0,0,1,2.13-.47c.39-.06.83-.11,1-.59l.06,0c.08,0,.19-.06.25,0s.09.14.11.22a.67.67,0,0,1,0,.2h0v0h0c.07,0,.07.08,0,.12-.07.62.07.66-.92,1v1.08a.87.87,0,0,0,.95-.17,2.85,2.85,0,0,1,1.14-.57,1.3,1.3,0,0,0,.54-.24,1.08,1.08,0,0,1,1.11-.13.24.24,0,0,1,.11.16c0,.05,0,.17-.06.17-.25,0-.29.25-.44.36.24.25.55.16.84.18a5.49,5.49,0,0,0,1.66-.27c.09,0,.16-.14.24-.21s-.08-.12-.11-.12a1.8,1.8,0,0,0-1,0c-.26.1-.49,0-.74,0-.06,0-.12-.15-.18-.23a.71.71,0,0,1,.59-.24c.34,0,.68,0,1-.07a1,1,0,0,0,.73-.32c0-.13,0-.27,0-.4-.23.29-.59.19-.89.24a11.87,11.87,0,0,1-1.57.13,3.79,3.79,0,0,1-.66-.11c0-.24.12-.34.3-.34s.55,0,.82,0a.54.54,0,0,0,.32,0,1.29,1.29,0,0,1,1-.23,1.3,1.3,0,0,0,.33-.07.52.52,0,0,1,.34.39c.07,0,.15,0,.19.08.2.29.45.25.76.14v-.58c.5-.23.5-.23,1.13,0l-.14.25c.24.24.55.09.84.23a1,1,0,0,1-.19.32c-.22.2-.47.37-.71.55,0,0,0,.08-.06.13l.09.38a.5.5,0,0,1,.46.36c.07.21.21.39.45.36.6-.09,1.17.16,1.77,0,.43-.08.63.14.67.57,0,.14,0,.28,0,.41a.8.8,0,0,0,0,.27,1.33,1.33,0,0,0,1.47.63A7.07,7.07,0,0,1,46,85.06a7.71,7.71,0,0,0,1.9-.5,2.78,2.78,0,0,1,1.07-.23,2.08,2.08,0,0,0,.54-.11c.73-.23.8-.21,1.24.42a.92.92,0,0,0,.93.47c.29,0,.59-.1.88-.17a1.46,1.46,0,0,1,1,.17.46.46,0,0,1,.21.25,11.74,11.74,0,0,0,.44,1.22,1.35,1.35,0,0,0,.4.58,4.21,4.21,0,0,0,.8,0c.56-.08,1.13-.21,1.69-.32a2.44,2.44,0,0,1,.47-.09,3.6,3.6,0,0,0,1.25-.32c.08,0,.13-.11.2-.17a3.29,3.29,0,0,0-.46-.33.8.8,0,0,0-.39-.09c-.41.05-.81.14-1.22.19s-.64,0-1,0a1.12,1.12,0,0,1-.4-.07c-.31-.12-.49-.33-.45-.54a.6.6,0,0,1,.52-.49,6.81,6.81,0,0,1,1.27-.26,1.53,1.53,0,0,0,.47-.07A16.23,16.23,0,0,0,59,84.3c.25-.08.49,0,.74-.09.84-.23,1.69-.42,2.54-.63a5.09,5.09,0,0,1,.85-.23,4.49,4.49,0,0,0,1.58-.4,1.94,1.94,0,0,1,.2,0,22.29,22.29,0,0,0,2.29-.67c.17-.07.34-.23.49-.21a3.22,3.22,0,0,0,1.43-.39,2.15,2.15,0,0,1,.32-.13c.84-.21,1.68-.45,2.52-.64a10.53,10.53,0,0,0,1.75-.57,1,1,0,0,1,.25-.09,2.31,2.31,0,0,0,1.44-.51,1,1,0,0,0,1.06-.2,2.94,2.94,0,0,1,1-.32,6.6,6.6,0,0,0,1-.28c.23-.11.5-.09.69-.23a1,1,0,0,1,.79-.08.49.49,0,0,0,.2,0A9.88,9.88,0,0,0,82,78a.33.33,0,0,1,.2,0,5.21,5.21,0,0,0,1.4-.34A4.67,4.67,0,0,0,84.87,77c.33-.23.8-.17,1.1-.5,0,0,0,0,.07,0a5.88,5.88,0,0,0,1.38-.38,3.34,3.34,0,0,1,1-.25,3.56,3.56,0,0,0,1.69-.52,1.77,1.77,0,0,1,.31-.15l2.35-.76c.21-.07.41-.2.62-.29a4,4,0,0,1,.57-.24c.35-.11.71-.19,1.06-.31.58-.2,1.15-.42,1.72-.64l.59-.21a8.83,8.83,0,0,1,1.2-.48c.82-.2,1.57-.64,2.41-.76a.31.31,0,0,0,.13-.06,8.81,8.81,0,0,1,1.15-.44c.37-.17.77-.28,1.16-.42s.6-.2.89-.32c.93-.39,1.84-.82,2.78-1.18s1.7-.55,2.53-.9a5.49,5.49,0,0,0,1.86-.84.33.33,0,0,1,.19-.08,4.54,4.54,0,0,0,1.47-.57c.53-.26,1.11-.42,1.63-.73a3,3,0,0,1,.32-.1l1.71-.72a.48.48,0,0,0,.16-.12.91.91,0,0,1,.62-.26,4.25,4.25,0,0,0,1.06-.28,1.39,1.39,0,0,1,.8-.09c.29,0,.59.06.89.09a.85.85,0,0,0,.64-.2,1.74,1.74,0,0,1,.6-.32,1.63,1.63,0,0,0,.6-.27,2.39,2.39,0,0,1,.44-.18,4.76,4.76,0,0,0,.77-.31,2.84,2.84,0,0,1,1-.37,1.32,1.32,0,0,0,.5-.22,5,5,0,0,1,.72-.38,3.71,3.71,0,0,1,.71-.24.78.78,0,0,0,.43-.2c.13-.13.29-.23.42-.36.29-.31.68-.57.81-1a1.68,1.68,0,0,1,.68-.92,2,2,0,0,0,.78-.83.49.49,0,0,1,.23-.24,1.15,1.15,0,0,0,.73-1,.29.29,0,0,1,.07-.12,9.55,9.55,0,0,1,1.3-1.32c.69-.49,1.3-1.08,2-1.54a2.1,2.1,0,0,1,1.42-.41.32.32,0,0,0,.32-.18c-.14-.08-.33-.07-.39-.26l-.11-.05c-.38-.12-.42-.22-.26-.52a2.48,2.48,0,0,1,2-1.29.54.54,0,0,1,.56.17.71.71,0,0,0,.53.21,12.2,12.2,0,0,1,1.55-.9s.1,0,.11-.07a.66.66,0,0,1,.57-.43,6.27,6.27,0,0,1,1.4-.86,1,1,0,0,1,.72-.18c.05,0,.1-.05.2-.11l-.3-.31c-.07-.08-.19-.16-.21-.26,0-.3-.26-.35-.49-.38a1.88,1.88,0,0,0-1.26.25,5.13,5.13,0,0,1-1.48.4l.25-.75a.23.23,0,0,1,.06-.12.52.52,0,0,1,.24-.11c.07,0,.14.09.19.16a1.09,1.09,0,0,1,.09.23c.44,0,.45,0,.89-.27a2,2,0,0,0,.71-1.31c.17-.1.36-.16.43-.28a2.22,2.22,0,0,1,.39-.47,1.23,1.23,0,0,0,.23-.33,1.53,1.53,0,0,1,.85-.86,1.31,1.31,0,0,0,.47-.28c.29-.34.73-.55.89-1a.47.47,0,0,1,.23-.25c.41-.17.51-.57.7-.9a.26.26,0,0,0,0-.32c-.51-.15-.65.44-1.05.54-.14-.27-.28-.53-.39-.8a.56.56,0,0,1,0-.34c0-.22.1-.44.14-.67s.14-.25,0-.38c-.31,0-.31,0-.62.3a1.33,1.33,0,0,1-.19,0c-.21-.09-.41-.2-.62-.28s-.49-.1-.64-.24-.45,0-.65-.15l-.4-.24c.22-.36.53-.65.37-1.11l-.33-.23a.47.47,0,0,0-.58,0A1.71,1.71,0,0,0,140,39a4.94,4.94,0,0,1-.79.66,3,3,0,0,0-.81.61.66.66,0,0,1-.6.28.71.71,0,0,0-.4.07,3.67,3.67,0,0,0-.76.28.32.32,0,0,1-.51-.15.34.34,0,0,1,.17-.46,1,1,0,0,1,.32-.12,2.54,2.54,0,0,1,.39,0l.35-.55-.42-.11c-.63-.2-.8-.55-.57-1.15a1.73,1.73,0,0,0,.16-.52A1.29,1.29,0,0,1,137,37a4.5,4.5,0,0,1,0-.52,4.64,4.64,0,0,1,.12-.47l-.19-.36a1,1,0,0,1-.1-.33,1.73,1.73,0,0,1,.13-.39A9.78,9.78,0,0,0,135.16,36a1.16,1.16,0,0,1-.65.2c-.13,0-.28,0-.36-.11s0-.11,0-.13c.45-.36.89-.73,1.36-1.06a7.84,7.84,0,0,0,1.18-1.05c.24-.24.47-.5.73-.73a2.89,2.89,0,0,0,.57-.59A1.08,1.08,0,0,1,139,32a1.32,1.32,0,0,0,1.33-.89.64.64,0,0,1,.13-.17,7.79,7.79,0,0,0,.8-.2,1.11,1.11,0,0,1,.74,0,.84.84,0,0,0,.85-.24c.14-.45-.32-.45-.38-.68.14-.29.25-.54.38-.78a4.33,4.33,0,0,1,.72-1.08c.24-.27.46-.56.64-.78a2,2,0,0,0-.34-1.16,4.25,4.25,0,0,0,.08-2.13c-.05,0-.1-.08-.16-.11a.83.83,0,0,1-.52-.82c0-.13,0-.25,0-.37-.34,0-.61.16-.93.13,0-.19,0-.33.06-.49a5.88,5.88,0,0,0-.84,0,1.89,1.89,0,0,1-.95,0,1,1,0,0,0-.84.1c-.08,0-.12.14-.27,0,0-.05,0-.16,0-.22a2,2,0,0,0,.23-.71.92.92,0,0,1,.46-.72,3.65,3.65,0,0,0,.49-.39c.16-.14.22-.36.07-.47s-.24-.46-.15-.74a3.56,3.56,0,0,0,.1-.47l.64-.42c.1-.06.18-.14.15-.27l-.49-.14a.56.56,0,0,1,.09-.13,11.45,11.45,0,0,1,2.26-1.15,1.72,1.72,0,0,1,.39-.1,1.9,1.9,0,0,0,.89-.34c.36-.24.74-.46,1.12-.68l1.54-.9a8.93,8.93,0,0,1,.88-.53,4.59,4.59,0,0,0,.73-.38l1.86-1.17a4.44,4.44,0,0,1,.81-.52,5.5,5.5,0,0,1,1-.17l.09-.21-.32-.05C152.23,11.32,152.29,11.27,152.36,11.22ZM132.48,8.76a2.12,2.12,0,0,1,.29-.38c.14-.15.29-.28.46-.45.05.1.11.18.1.2a.24.24,0,0,0,0,.35c.09.13,0,.27-.14.34a3.09,3.09,0,0,1-.51.18.22.22,0,0,1-.18-.06A.17.17,0,0,1,132.48,8.76ZM32.56,72.7c-.15,0-.25-.21-.24-.43s.16-.43.34-.42.11,0,.12,0a4.09,4.09,0,0,1,.21.4A.42.42,0,0,1,32.56,72.7ZM20.15,83l-.5-.07c.12-.27-.11-.36-.21-.5a.67.67,0,0,1,.71.08C20.32,82.62,20.33,82.62,20.15,83Zm5.68.37.08,0C25.82,83.45,25.83,83.39,25.83,83.34Zm1.42-.55-1-.17.19-.29c.13,0,.29.09.32,0a.59.59,0,0,1,.74-.16.69.69,0,0,0,.25,0c0,.08-.09.17-.13.26Zm6.27-1.25-.22.14C33.36,81.53,33.45,81.55,33.52,81.54Zm.15,0s-.06,0-.1,0,.06-.15.16-.12.06.08.09.13A.83.83,0,0,1,33.67,81.58Zm.47-11.66c0-.44,0-.45.33-.52l1-.17v.54A5.78,5.78,0,0,1,34.14,69.92Zm5,.89a4.79,4.79,0,0,1-.71.31.47.47,0,0,0-.34.31c0,.26-.24.32-.42.41a.92.92,0,0,1-.73.13c-.22-.09-.49-.06-.69-.26a.51.51,0,0,0-.44-.1,1.27,1.27,0,0,1-.94-.07,1.43,1.43,0,0,0,.23-.27.49.49,0,0,0,.09-.32,1.15,1.15,0,0,0-.2-.35,1.9,1.9,0,0,1,1.39,0,.76.76,0,0,0,.53.07l1.07-.21a.68.68,0,0,0,.49-.22c.09-.12.24-.1.38-.09s.29.08.31.36A1.69,1.69,0,0,1,39.09,70.81Zm2.24,10.12c-.17.17-.35.11-.57,0a.52.52,0,0,1,.45-.3.24.24,0,0,1,.17.09A.2.2,0,0,1,41.33,80.93Zm10.3,3.25c-.18,0-.25-.09-.24-.24s.07-.2.21-.2l.13,0c.09,0,.21.07.2.21S51.79,84.18,51.63,84.18ZM138,46.9a3.27,3.27,0,0,1,.39-.06c-.13.21-.17.32-.25.38s-.21.19-.35.08S137.78,47,138,46.9Zm.32,2.18-.11.05,0-.05.1,0ZM137,50.72a.53.53,0,0,1,.43-.19,3.85,3.85,0,0,0,.48,0,.57.57,0,0,0,.44-.15,1.07,1.07,0,0,1,.69-.26,4.42,4.42,0,0,0,.52-.14,3.57,3.57,0,0,1,.46,0,.9.9,0,0,1,0,.17c0,.07-.07.16-.12.17-.4.08-.54.54-.92.65-.55.16-1.09.33-1.65.47a1.83,1.83,0,0,1-.52,0C136.65,51.07,136.82,50.9,137,50.72Zm5.31-27.65a1.13,1.13,0,0,1,.42,0,2.14,2.14,0,0,1-.82.64s-.07,0-.11-.06,0-.05,0-.07A1.1,1.1,0,0,1,142.27,23.07ZM139.37,20a3.6,3.6,0,0,1-1.31,1.26,6.63,6.63,0,0,1-2,.71,1.6,1.6,0,0,1-.47.11,1.47,1.47,0,0,0-.8.39c0,.22,0,.47,0,.8a6.88,6.88,0,0,0-.6.55c-.19.22-.38.21-.64,0,0-.14-.07-.32-.13-.54l.17-.11c.29-.2.63-.34.78-.69a1.35,1.35,0,0,0-.35.14,1.39,1.39,0,0,1-1.24.09.57.57,0,0,1,.27-.48,25.07,25.07,0,0,1,2.3-1.34A11.6,11.6,0,0,0,137,20a9.56,9.56,0,0,1,1.56-.71,1.09,1.09,0,0,1,.54,0C139.45,19.31,139.54,19.62,139.37,20Zm1.33-3.41c.12-.28.12-.28.44-.12Zm.54-.61,0,0,0,0s0,0,0,0Zm2.33-.22c-.11.07-.22.12-.3,0s0-.16,0-.24c-.2-.08-.35,0-.52.11a4.84,4.84,0,0,1-.57.23s-.1,0-.11-.05a.2.2,0,0,1,0-.17.74.74,0,0,1,.21-.18l1.4-.74a1.82,1.82,0,0,1,.39-.14,2.86,2.86,0,0,1,.37-.06c0,.21-.14.41.06.61Z" style="fill: url(#linear-gradient-2)"/>
    <path d="M137.51,38.86a2.16,2.16,0,0,1,.67,0,.9.9,0,0,0,1-.37,1.48,1.48,0,0,1,.73-.59,1.33,1.33,0,0,0,.8-.79A3.85,3.85,0,0,1,141.5,36l.25-.33a.84.84,0,0,0,.09-.6.36.36,0,0,0-.27-.36,4.5,4.5,0,0,1-2,.54,1.31,1.31,0,0,0-.87.36c.11.38.33.78-.25,1,.17.19.22.34.07.48s-.26.18-.39.27l-.64.41a.9.9,0,0,0-.37.64C137.11,38.7,137.24,38.88,137.51,38.86Zm2.79-3.49,0,0-.06,0,0,0Zm-.67.11a1.08,1.08,0,0,1,.31,0,.24.24,0,0,1-.25.23.23.23,0,0,1-.15-.1C139.53,35.58,139.59,35.48,139.63,35.48Z" style="fill: url(#linear-gradient-3)"/>
    <path d="M21.93,85.29h0Z" style="fill: url(#linear-gradient-4)"/>
    <path d="M20.5,85.25l-.27.19c0,.11,0,.2-.05.29-.09.52-.2.62-.68.71a1.24,1.24,0,0,0-.4.09.7.7,0,0,1-.53.06.91.91,0,0,0-.33,0,2.44,2.44,0,0,1-.81,0,.43.43,0,0,0-.25.11.23.23,0,0,0-.06.18.22.22,0,0,0,.12.13c.45.13.49.16.47.59a2.06,2.06,0,0,0,.07.91c.12,0,.25.13.37.19.14-.09.15-.25.33-.26a1.08,1.08,0,0,0,1-.72c0-.14.22-.23.28-.29.43,0,.79,0,1.15,0a6.2,6.2,0,0,0,1.4-.23c.33-.12.33-.12.28-.58-.4,0-.76-.27-1.18-.13,0,0-.09,0-.13,0a.24.24,0,0,1-.11-.39c.25-.25.51-.49.77-.73A3.87,3.87,0,0,1,20.8,85Z" style="fill: url(#linear-gradient-5)"/>
    <path d="M24.13,74.51c-.16,0-.31.11-.46.1a1.25,1.25,0,0,0-1,.35l-.35-.08a1.35,1.35,0,0,0-1.52.24.77.77,0,0,1-.42.21,2.5,2.5,0,0,1-1.05.11c-.06.25-.11.46-.18.7a1.2,1.2,0,0,0,.39.15,7.84,7.84,0,0,0,.82-.08,3.19,3.19,0,0,1,.61-.08,1.28,1.28,0,0,0,.58-.15,3.63,3.63,0,0,1,1.78-.43,1.77,1.77,0,0,0,1-.24c.26-.14.42-.38.36-.53A.6.6,0,0,0,24.13,74.51Z" style="fill: url(#linear-gradient-6)"/>
    <path d="M30.24,74.35h0l0,0h-.07Z" style="fill: url(#linear-gradient-7)"/>
    <path d="M29.8,73.86c-.1-.14-.19-.3-.3-.47a1.19,1.19,0,0,0-.31.2,1.24,1.24,0,0,1-.64.38,2.61,2.61,0,0,1-1.36,0,1.5,1.5,0,0,1-1.21.34,1.29,1.29,0,0,0-.6.12c-.21.08-.32.25-.2.55.44,0,.89.3,1.34-.09.06-.06.18,0,.27-.06a7.58,7.58,0,0,0,.82-.08,2.75,2.75,0,0,1,1.87.22,2.08,2.08,0,0,0,.66.18.55.55,0,0,0,.61-.22l-.28-.3-.23-.31C30,74.27,29.93,74,29.8,73.86Z" style="fill: url(#linear-gradient-8)"/>
    <path d="M24,77.31a1.63,1.63,0,0,1-.82,0,1.23,1.23,0,0,0-.6,0c-.31.07-.62.17-.92.27a.34.34,0,0,0-.11.07V78c.14.06.29.18.42.15s.44.13.65-.08.43-.12.66-.14c.39,0,.78,0,1.16-.09s.77,0,1.15,0A6.89,6.89,0,0,1,27,77.62a.7.7,0,0,0,.27-.06,1.08,1.08,0,0,1,.67-.08c.22.06.38-.08.55-.27-.11-.08-.19-.2-.28-.2a8,8,0,0,0-1.3,0,9.21,9.21,0,0,1-2.45.22A1.29,1.29,0,0,0,24,77.31Zm-.47.3v0l0,0Z" style="fill: url(#linear-gradient-9)"/>
    <path d="M114.46,8.54a2.73,2.73,0,0,0,.83-.29,2.29,2.29,0,0,1,.89-.34.4.4,0,0,0,.4-.47.36.36,0,0,1,.26-.43,2.58,2.58,0,0,0,1-.83.31.31,0,0,0,0-.47,1.66,1.66,0,0,0-1.12.47,1.77,1.77,0,0,1-.46.31,1.28,1.28,0,0,0-.75.82.93.93,0,0,1-.61.61,11.4,11.4,0,0,0-1.36.78l0,.13A5,5,0,0,1,114.46,8.54Z" style="fill: url(#linear-gradient-10)"/>
    <path d="M14.89,74.47a.82.82,0,0,0,.41.5c.35-.16.28-.58.44-.85l1.28-.8c-.14-.23-.31-.38-.53-.3a4.74,4.74,0,0,1-.74.07,10.12,10.12,0,0,0-1.12.25c-.25.08-.29.29-.12.49A2.46,2.46,0,0,1,14.89,74.47Z" style="fill: url(#linear-gradient-11)"/>
    <path d="M142.68,47.29c-.29,0-.64-.17-.92.05,0,.67,0,.67.53,1.64h.47a.9.9,0,0,0,.13-.26.6.6,0,0,1,.57-.58.39.39,0,0,0,.31-.47c0-.11,0-.22,0-.4A2.59,2.59,0,0,1,142.68,47.29Z" style="fill: url(#linear-gradient-12)"/>
    <path d="M127.63,2.14c.14,0,.11.17.13.27a1,1,0,0,0,.25,0,3.36,3.36,0,0,1,.9-.47c.1,0,.18-.14.26-.22a.31.31,0,0,0,.06-.38,1.09,1.09,0,0,0-.32-.23s0,0-.07,0a2.64,2.64,0,0,0-1.45.7s0,.18,0,.24S127.55,2.11,127.63,2.14Z" style="fill: url(#linear-gradient-13)"/>
    <path d="M11.34,90.36a.9.9,0,0,0-.72,0,.41.41,0,0,1-.39,0,1.94,1.94,0,0,0-.45,0c0,.17,0,.27.06.35a.64.64,0,0,0,.1.18c.19.3.31.35.68.26a1.87,1.87,0,0,1,.4-.07c.22,0,.33-.13.45-.27A.26.26,0,0,0,11.34,90.36Z" style="fill: url(#linear-gradient-14)"/>
    <path d="M29.54,86.38a5.9,5.9,0,0,1-.73.15c-.26,0-.5.17-.77.1,0,0-.1.07-.21.14.15.07.28.19.38.17a7.89,7.89,0,0,1,1.19,0,2.54,2.54,0,0,0,.68-.05c.2,0,.47,0,.57-.27A1.2,1.2,0,0,0,29.54,86.38Z" style="fill: url(#linear-gradient-15)"/>
    <path d="M31.44,65.32a1,1,0,0,0,.3-.11A1.87,1.87,0,0,0,31.6,65a.44.44,0,0,0-.4-.29.71.71,0,0,1-.53-.48,2.57,2.57,0,0,0-.12-.27l-.46.53a1.63,1.63,0,0,0-.05.21c.17.13.33.26.5.37A1.45,1.45,0,0,0,31.44,65.32Z" style="fill: url(#linear-gradient-16)"/>
    <path d="M27.35,48.92s0-.07.14-.19A4.87,4.87,0,0,0,27,48.6c-.27-.05-.55-.07-.82-.12a.58.58,0,0,0-.64.28.22.22,0,0,0,.11.33A2.67,2.67,0,0,0,27.35,48.92Z" style="fill: url(#linear-gradient-17)"/>
    <path d="M27.57,56.3a.65.65,0,0,0,.36.54.47.47,0,0,1,.27.66c-.09.3.05.42.37.38a1,1,0,0,0,.28-.08l-.24-.58.19-.39A1.93,1.93,0,0,0,27.57,56.3Z" style="fill: url(#linear-gradient-18)"/>
    <path d="M26.22,86.8a8,8,0,0,0-.89.33c0,.24.21.31.42.37a.45.45,0,0,0,.45,0,1,1,0,0,1,.73-.29c.06,0,.16-.1.19-.17a1.05,1.05,0,0,0,0-.31A7.46,7.46,0,0,0,26.22,86.8Z" style="fill: url(#linear-gradient-19)"/>
    <path d="M61.35,85.65a2.73,2.73,0,0,0-.74.26s0,0,0,.08l.4.21a2.6,2.6,0,0,1,1.21-.48c.62-.07.62-.06,1.4-.64a5.1,5.1,0,0,0-.93.22A3.27,3.27,0,0,1,61.35,85.65Z" style="fill: url(#linear-gradient-20)"/>
    <path d="M138.91,33.46c.08,0,.13,0,.16,0a3.23,3.23,0,0,0,1.24-.89.54.54,0,0,0,.13-.6,1.19,1.19,0,0,0-.58.42C139.58,32.78,139.19,33.07,138.91,33.46Z" style="fill: url(#linear-gradient-21)"/>
    <path d="M121.45,6.36a1.61,1.61,0,0,0-.88,1c.59,0,.8-.12,1.38-.73C121.58,6.33,121.56,6.32,121.45,6.36Z" style="fill: url(#linear-gradient-22)"/>
    <path d="M15.23,90.08a.48.48,0,0,0,.54.28.85.85,0,0,0,.7-.32.59.59,0,0,0,0-.13l-.42-.34C15.77,89.71,15.39,89.67,15.23,90.08Z" style="fill: url(#linear-gradient-23)"/>
    <path d="M14.72,81.71c-.12-.07-.4,0-.44.05a.84.84,0,0,0,0,.32.71.71,0,0,0,.08.18.41.41,0,0,0,.55.24c.13,0,.24-.1.42-.17A2.93,2.93,0,0,0,14.72,81.71Z" style="fill: url(#linear-gradient-24)"/>
    <path d="M140.46,32h0v0h0Z" style="fill: url(#linear-gradient-25)"/>
    <path d="M141.7,31.41c-.39-.27-.68-.24-.9.08s-.15.38-.34.49c.15,0,.3.13.43.09A1.39,1.39,0,0,0,141.7,31.41Z" style="fill: url(#linear-gradient-26)"/>
    <path d="M69.42,83.54c.7.15,1.21-.2,1.77-.24a1.59,1.59,0,0,0,.83-.36c-.66,0-1.09.29-1.59.31A4.05,4.05,0,0,0,69.42,83.54Z" style="fill: url(#linear-gradient-27)"/>
    <path d="M30.21,77c0-.07,0-.1,0-.11a.56.56,0,0,0-.87.12.28.28,0,0,0,0,.25c0,.06.14.09.22.09A1,1,0,0,0,30.21,77Z" style="fill: url(#linear-gradient-28)"/>
    <path d="M38.28,85.33a.28.28,0,0,0,.27.35,1.93,1.93,0,0,0,.79-.13c.12,0,.16-.14,0-.29Z" style="fill: url(#linear-gradient-29)"/>
    <path d="M22.69,84.93s0,0-.05-.05,0,0-.06,0l-.2-.11c-.07.1-.12.19-.19.28s-.26.09-.22.27.21.13.32.18a.35.35,0,0,0,.44,0C22.83,85.25,22.54,85.11,22.69,84.93Z" style="fill: url(#linear-gradient-30)"/>
    <path d="M138.86,52.41c-.29.11-.17.28-.15.42a.54.54,0,0,0,.55.15C139.25,52.68,139,52.57,138.86,52.41Z" style="fill: url(#linear-gradient-31)"/>
    <path d="M16.19,70a.42.42,0,0,0-.59.16c0,.08,0,.24.09.44C16.1,70.31,16.1,70.31,16.19,70Z" style="fill: url(#linear-gradient-32)"/>
    <path d="M43.16,86.28l-.06.19.54.13c.22,0,.28,0,.2-.32Z" style="fill: url(#linear-gradient-33)"/>
    <path d="M124.15,8.18a2.63,2.63,0,0,0,1.2-.35A1.53,1.53,0,0,0,124.15,8.18Z" style="fill: url(#linear-gradient-34)"/>
    <path d="M137.93,34.46c.07-.11.12-.22.18-.33a.72.72,0,0,0-.67.41A.32.32,0,0,0,137.93,34.46Z" style="fill: url(#linear-gradient-35)"/>
    <path d="M26.78,52.4a1.76,1.76,0,0,0,.83.23l-.21.25a.77.77,0,0,0,.79.07c-.21-.3-.21-.3-.57-.33a1.74,1.74,0,0,0-.25-.29C27.17,52.13,27,52.16,26.78,52.4Z" style="fill: url(#linear-gradient-36)"/>
    <path d="M31.29,55.61c-.11-.31-.15-.32-.68-.11C30.81,55.77,31.06,55.63,31.29,55.61Z" style="fill: url(#linear-gradient-37)"/>
    <path d="M72.23,83c.15,0,.29-.11.44-.15s.33,0,.44-.25C72.47,82.71,72.36,82.75,72.23,83Z" style="fill: url(#linear-gradient-38)"/>
    <path d="M76.91,81.6c0,.24.17.2.29.13s.21-.09.15-.27Z" style="fill: url(#linear-gradient-39)"/>
    <path d="M36.78,60.69c0-.08.07-.19,0-.24s-.23-.07-.4,0l.21.24S36.71,60.69,36.78,60.69Z" style="fill: url(#linear-gradient-40)"/>
    <path d="M68.74,83.72s0,.06,0,.06.13.08.18.06a.74.74,0,0,0,.23-.16.68.68,0,0,0-.25-.05A.33.33,0,0,0,68.74,83.72Z" style="fill: url(#linear-gradient-41)"/>
    <path d="M142.72,39.83c-.09-.42-.09-.42-.42-.43Z" style="fill: url(#linear-gradient-42)"/>
    <path d="M142.67,39s-.07,0-.11,0,0,.09,0,.1a2,2,0,0,0,.22.09A.86.86,0,0,0,142.67,39Z" style="fill: url(#linear-gradient-43)"/>
    <path d="M31,86.62a.16.16,0,0,0,.26-.06L31,86.43C31,86.5,31,86.6,31,86.62Z" style="fill: url(#linear-gradient-44)"/>
    <path d="M112.92,9.3c0-.06,0-.12-.08-.12a.13.13,0,0,0-.11.05s0,.08,0,.12Z" style="fill: url(#linear-gradient-45)"/>
    <path d="M152.53,11.7l0,0h0v0Z" style="fill: url(#linear-gradient-46)"/>
    <path d="M153,11.7h-.46C152.74,11.83,152.76,11.83,153,11.7Z" style="fill: url(#linear-gradient-47)"/>
    <path d="M21.15,78h.13s0-.06,0-.06l-.11,0Z" style="fill: url(#linear-gradient-48)"/>
    <path d="M32.59,81.38v0s0,0,0,0h0Z" style="fill: url(#linear-gradient-49)"/>
    <path d="M32.43,81.31a.13.13,0,0,0,0,.07.09.09,0,0,0,0,0l.16,0v-.12A.49.49,0,0,0,32.43,81.31Z" style="fill: url(#linear-gradient-50)"/>
    <path d="M61.85,84.9h-.14v0h.13Z" style="fill: url(#linear-gradient-51)"/>
    <path d="M32.09,86.2a.68.68,0,0,0,0,.14l0-.12,0-.06S32.09,86.19,32.09,86.2Z" style="fill: url(#linear-gradient-52)"/>
    <path d="M28.57,51.73l-.09,0-.05,0,.09,0Z" style="fill: url(#linear-gradient-53)"/>
    <path d="M29.35,55.58s0-.07,0-.11-.08,0-.1.06,0,.06,0,.09S29.34,55.6,29.35,55.58Z" style="fill: url(#linear-gradient-54)"/>
    <path d="M34,74.38s-.1,0-.11.05a.27.27,0,0,0,0,.12l.16-.08S34,74.38,34,74.38Z" style="fill: url(#linear-gradient-55)"/>
    <path d="M141.58,17.82h-.05l-.08.06a.12.12,0,0,0,.08,0S141.57,17.85,141.58,17.82Z" style="fill: url(#linear-gradient-56)"/>
    <path d="M141.45,17.88h0Z" style="fill: url(#linear-gradient-57)"/>
    <path d="M30.45,56.86l0,0a.45.45,0,0,0-.11,0s0,0,0,0Z" style="fill: url(#linear-gradient-58)"/>
    <path d="M123.27,3.76l0,0s0,0,0,.07Z" style="fill: url(#linear-gradient-59)"/>
    <path d="M74.19,82.26a.21.21,0,0,0,0,.06l0,0s0,0,0,0Z" style="fill: url(#linear-gradient-60)"/>
    <path d="M31.14,82.44l.05,0,.11,0s0,0,0,0Z" style="fill: url(#linear-gradient-61)"/>
    <path d="M31.68,86.26l.05.07s0,0,0,0Z" style="fill: url(#linear-gradient-62)"/>
    <path d="M31.73,86.33l0,0,0,0,0,0Z" style="fill: url(#linear-gradient-63)"/>
    <path d="M17.58,90l0,0,0-.05Z" style="fill: url(#linear-gradient-64)"/>
    <path d="M130.42,1.56l0,0-.09.06.1,0Z" style="fill: url(#linear-gradient-65)"/>
    <path d="M127.73,2.43h0Z" style="fill: url(#linear-gradient-66)"/>
    <path d="M127.69,2.49l0-.06h0S127.69,2.47,127.69,2.49Z" style="fill: url(#linear-gradient-67)"/>
    <path d="M153.3,11.56l0,0,0,0,0,0Z" style="fill: url(#linear-gradient-68)"/>
    <path d="M138.27,34l0,0a1.09,1.09,0,0,1-.13.17v0h0Z" style="fill: url(#linear-gradient-69)"/>
    <path d="M142.84,39.24l0,0h0Z" style="fill: url(#linear-gradient-70)"/>
    <polygon points="141.5 51.33 141.54 51.32 141.5 51.3 141.5 51.33" style="fill: url(#linear-gradient-71)"/>
    <path d="M135.1,53.62h0v0Z" style="fill: url(#linear-gradient-72)"/>
    <path d="M135.11,53.54v0h0S135.12,53.55,135.11,53.54Z" style="fill: url(#linear-gradient-73)"/>
    <path d="M135.51,53.86l0,0h0Z" style="fill: url(#linear-gradient-74)"/>
    <path d="M132.58,20.56l0,0h0Z" style="fill: url(#linear-gradient-75)"/>
    <path d="M28.79,78.32h0S28.8,78.31,28.79,78.32Z" style="fill: url(#linear-gradient-76)"/>
    <path d="M16.29,82.09h.11l0-.08Z" style="fill: url(#linear-gradient-77)"/>
    <polygon points="38.58 82.42 38.61 82.44 38.61 82.41 38.58 82.42" style="fill: url(#linear-gradient-78)"/>
    <path d="M22.23,83.23l0,0,0,0Z" style="fill: url(#linear-gradient-79)"/>
    <path d="M43.07,86.5h0v0h0Z" style="fill: url(#linear-gradient-80)"/>
    <path d="M134.6,22.45s-.06-.07-.07-.07a.5.5,0,0,0-.12.08l.15,0S134.59,22.46,134.6,22.45Z" style="fill: url(#linear-gradient-81)"/>
    <path d="M134.41,22.46h0s0,0,0,0h0Z" style="fill: url(#linear-gradient-82)"/>
    <path d="M143.59,15.36l.29-.2-.45.06C143.52,15.29,143.58,15.37,143.59,15.36Z" style="fill: url(#linear-gradient-83)"/>
    <path d="M143.88,15.16h.05l0,0h0Z" style="fill: url(#linear-gradient-84)"/>
    <path d="M144,15.13l0,0,0,0Z" style="fill: url(#linear-gradient-85)"/>
  </g>
</svg>
